HIERARCHY
ROOT Hips
{
	OFFSET 0.053599 88.859886 3.107447
	CHANNELS 6 Xposition Yposition Zposition Zrotation Yrotation Xrotation 
	JOINT Spine
	{
		OFFSET -0.000000 8.814246 -2.080107
		CHANNELS 3 Zrotation Yrotation Xrotation
		JOINT Spine1
		{
			OFFSET 0.000000 8.844141 0.000000
			CHANNELS 3 Zrotation Yrotation Xrotation
			JOINT Spine2
			{
				OFFSET -0.000000 11.682268 0.000000
				CHANNELS 3 Zrotation Yrotation Xrotation
				JOINT Spine3
				{
					OFFSET 0.000000 11.746700 0.000000
					CHANNELS 3 Zrotation Yrotation Xrotation
					JOINT Neck
					{
						OFFSET -0.000000 17.658264 -0.000000
						CHANNELS 3 Zrotation Yrotation Xrotation
						JOINT Neck1
						{
							OFFSET -0.000000 5.101515 -0.000000
							CHANNELS 3 Zrotation Yrotation Xrotation
							JOINT Head
							{
								OFFSET 0.000000 5.101515 0.000000
								CHANNELS 3 Zrotation Yrotation Xrotation
								JOINT HeadEnd
								{
									OFFSET 0.000000 11.655085 0.000000
									CHANNELS 3 Zrotation Yrotation Xrotation
									End Site
									{
										OFFSET 0.000000 0.000000 0.000000
									}
								}
							}
						}
					}
					JOINT RightShoulder
					{
						OFFSET -2.625389 11.175210 0.000000
						CHANNELS 3 Zrotation Yrotation Xrotation
						JOINT RightArm
						{
							OFFSET -0.000000 10.434715 -0.000000
							CHANNELS 3 Zrotation Yrotation Xrotation
							JOINT RightForeArm
							{
								OFFSET -0.000000 29.628420 0.000000
								CHANNELS 3 Zrotation Yrotation Xrotation
								JOINT RightHand
								{
									OFFSET -0.000000 22.857611 0.000000
									CHANNELS 3 Zrotation Yrotation Xrotation
									JOINT RightHandThumb1
									{
										OFFSET -2.867323 3.959563 2.944291
										CHANNELS 3 Zrotation Yrotation Xrotation
										JOINT RightHandThumb2
										{
											OFFSET 0.000000 3.350399 0.000000
											CHANNELS 3 Zrotation Yrotation Xrotation
											JOINT RightHandThumb3
											{
												OFFSET 0.000000 3.756509 -0.000000
												CHANNELS 3 Zrotation Yrotation Xrotation
												JOINT RightHandThumb4
												{
													OFFSET 0.000000 3.147345 0.000000
													CHANNELS 3 Zrotation Yrotation Xrotation
													End Site
													{
														OFFSET 0.000000 0.000000 0.000000
													}
												}
											}
										}
									}
									JOINT RightHandIndex1
									{
										OFFSET -0.086752 10.030893 2.345280
										CHANNELS 3 Zrotation Yrotation Xrotation
										JOINT RightHandIndex2
										{
											OFFSET -0.000000 4.061090 0.000000
											CHANNELS 3 Zrotation Yrotation Xrotation
											JOINT RightHandIndex3
											{
												OFFSET -0.000000 3.248873 0.000000
												CHANNELS 3 Zrotation Yrotation Xrotation
												JOINT RightHandIndex4
												{
													OFFSET 0.000000 2.639709 -0.000000
													CHANNELS 3 Zrotation Yrotation Xrotation
													End Site
													{
														OFFSET 0.000000 0.000000 0.000000
													}
												}
											}
										}
									}
									JOINT RightHandMiddle1
									{
										OFFSET 0.104102 9.502952 0.006768
										CHANNELS 3 Zrotation Yrotation Xrotation
										JOINT RightHandMiddle2
										{
											OFFSET 0.000000 4.568727 0.000000
											CHANNELS 3 Zrotation Yrotation Xrotation
											JOINT RightHandMiddle3
											{
												OFFSET 0.000000 3.654981 -0.000000
												CHANNELS 3 Zrotation Yrotation Xrotation
												JOINT RightHandMiddle4
												{
													OFFSET -0.000000 2.741236 -0.000000
													CHANNELS 3 Zrotation Yrotation Xrotation
													End Site
													{
														OFFSET 0.000000 0.000000 0.000000
													}
												}
											}
										}
									}
									JOINT RightHandRing1
									{
										OFFSET 0.086752 8.921708 -2.267442
										CHANNELS 3 Zrotation Yrotation Xrotation
										JOINT RightHandRing2
										{
											OFFSET -0.000000 4.061090 0.000000
											CHANNELS 3 Zrotation Yrotation Xrotation
											JOINT RightHandRing3
											{
												OFFSET 0.000000 3.654981 -0.000000
												CHANNELS 3 Zrotation Yrotation Xrotation
												JOINT RightHandRing4
												{
													OFFSET 0.000000 2.741236 -0.000000
													CHANNELS 3 Zrotation Yrotation Xrotation
													End Site
													{
														OFFSET 0.000000 0.000000 0.000000
													}
												}
											}
										}
									}
									JOINT RightHandPinky1
									{
										OFFSET -0.173504 7.976997 -4.467199
										CHANNELS 3 Zrotation Yrotation Xrotation
										JOINT RightHandPinky2
										{
											OFFSET 0.000000 3.350399 -0.000000
											CHANNELS 3 Zrotation Yrotation Xrotation
											JOINT RightHandPinky3
											{
												OFFSET -0.000000 2.842763 0.000000
												CHANNELS 3 Zrotation Yrotation Xrotation
												JOINT RightHandPinky4
												{
													OFFSET -0.000000 2.639709 0.000000
													CHANNELS 3 Zrotation Yrotation Xrotation
													End Site
													{
														OFFSET 0.000000 0.000000 0.000000
													}
												}
											}
										}
									}
									JOINT RightForeArmEnd
									{
										OFFSET 0.000000 0.000000 0.000000
										CHANNELS 3 Zrotation Yrotation Xrotation
										End Site
										{
											OFFSET 0.000000 0.000000 0.000000
										}
									}
								}
								JOINT RightArmEnd
								{
									OFFSET 0.000000 0.000000 0.000000
									CHANNELS 3 Zrotation Yrotation Xrotation
									End Site
									{
										OFFSET 0.000000 0.000000 0.000000
									}
								}
							}
						}
					}
					JOINT LeftShoulder
					{
						OFFSET 2.625389 11.175210 0.000000
						CHANNELS 3 Zrotation Yrotation Xrotation
						JOINT LeftArm
						{
							OFFSET 0.000000 10.813635 -0.000000
							CHANNELS 3 Zrotation Yrotation Xrotation
							JOINT LeftForeArm
							{
								OFFSET 0.000000 28.724781 0.000000
								CHANNELS 3 Zrotation Yrotation Xrotation
								JOINT LeftHand
								{
									OFFSET 0.644384 25.716167 -0.328871
									CHANNELS 3 Zrotation Yrotation Xrotation
									JOINT LeftHandThumb1
									{
										OFFSET 2.867323 3.959563 2.944291
										CHANNELS 3 Zrotation Yrotation Xrotation
										JOINT LeftHandThumb2
										{
											OFFSET 0.000000 3.350399 0.000000
											CHANNELS 3 Zrotation Yrotation Xrotation
											JOINT LeftHandThumb3
											{
												OFFSET -0.000000 3.756509 0.000000
												CHANNELS 3 Zrotation Yrotation Xrotation
												JOINT LeftHandThumb4
												{
													OFFSET -0.000000 3.100000 0.000000
													CHANNELS 3 Zrotation Yrotation Xrotation
													End Site
													{
														OFFSET 0.000000 0.000000 0.000000
													}
												}
											}
										}
									}
									JOINT LeftHandIndex1
									{
										OFFSET 0.086752 10.030893 2.345280
										CHANNELS 3 Zrotation Yrotation Xrotation
										JOINT LeftHandIndex2
										{
											OFFSET -0.000000 4.061090 -0.000000
											CHANNELS 3 Zrotation Yrotation Xrotation
											JOINT LeftHandIndex3
											{
												OFFSET 0.000000 3.248873 -0.000000
												CHANNELS 3 Zrotation Yrotation Xrotation
												JOINT LeftHandIndex4
												{
													OFFSET 0.000000 2.639709 -0.000000
													CHANNELS 3 Zrotation Yrotation Xrotation
													End Site
													{
														OFFSET 0.000000 0.000000 0.000000
													}
												}
											}
										}
									}
									JOINT LeftHandMiddle1
									{
										OFFSET -0.104102 9.502952 0.006768
										CHANNELS 3 Zrotation Yrotation Xrotation
										JOINT LeftHandMiddle2
										{
											OFFSET -0.000000 4.568727 -0.000000
											CHANNELS 3 Zrotation Yrotation Xrotation
											JOINT LeftHandMiddle3
											{
												OFFSET 0.000000 3.654981 0.000000
												CHANNELS 3 Zrotation Yrotation Xrotation
												JOINT LeftHandMiddle4
												{
													OFFSET 0.000000 2.741236 -0.000000
													CHANNELS 3 Zrotation Yrotation Xrotation
													End Site
													{
														OFFSET 0.000000 0.000000 0.000000
													}
												}
											}
										}
									}
									JOINT LeftHandRing1
									{
										OFFSET -0.086752 8.921708 -2.267442
										CHANNELS 3 Zrotation Yrotation Xrotation
										JOINT LeftHandRing2
										{
											OFFSET 0.000000 4.061090 0.000000
											CHANNELS 3 Zrotation Yrotation Xrotation
											JOINT LeftHandRing3
											{
												OFFSET 0.000000 3.654981 0.000000
												CHANNELS 3 Zrotation Yrotation Xrotation
												JOINT LeftHandRing4
												{
													OFFSET 0.000000 2.741236 0.000000
													CHANNELS 3 Zrotation Yrotation Xrotation
													End Site
													{
														OFFSET 0.000000 0.000000 0.000000
													}
												}
											}
										}
									}
									JOINT LeftHandPinky1
									{
										OFFSET 0.173504 7.976997 -4.467199
										CHANNELS 3 Zrotation Yrotation Xrotation
										JOINT LeftHandPinky2
										{
											OFFSET -0.000000 3.350399 -0.000000
											CHANNELS 3 Zrotation Yrotation Xrotation
											JOINT LeftHandPinky3
											{
												OFFSET 0.000000 2.842763 0.000000
												CHANNELS 3 Zrotation Yrotation Xrotation
												JOINT LeftHandPinky4
												{
													OFFSET -0.000000 2.639709 -0.000000
													CHANNELS 3 Zrotation Yrotation Xrotation
													End Site
													{
														OFFSET 0.000000 0.000000 0.000000
													}
												}
											}
										}
									}
									JOINT LeftForeArmEnd
									{
										OFFSET 0.000000 0.000000 0.000000
										CHANNELS 3 Zrotation Yrotation Xrotation
										End Site
										{
											OFFSET 0.000000 0.000000 0.000000
										}
									}
								}
								JOINT LeftArmEnd
								{
									OFFSET 0.000000 0.000000 0.000000
									CHANNELS 3 Zrotation Yrotation Xrotation
									End Site
									{
										OFFSET 0.000000 0.000000 0.000000
									}
								}
							}
						}
					}
				}
			}
		}
	}
	JOINT RightUpLeg
	{
		OFFSET -11.289943 0.000000 0.000000
		CHANNELS 3 Zrotation Yrotation Xrotation
		JOINT RightLeg
		{
			OFFSET 0.000000 -38.200325 0.000000
			CHANNELS 3 Zrotation Yrotation Xrotation
			JOINT RightFoot
			{
				OFFSET -0.000000 -39.900856 -0.000000
				CHANNELS 3 Zrotation Yrotation Xrotation
				JOINT RightToeBase
				{
					OFFSET 0.000000 0.000000 15.261641
					CHANNELS 3 Zrotation Yrotation Xrotation
					JOINT RightToeBaseEnd
					{
						OFFSET 0.000000 0.000000 7.370709
						CHANNELS 3 Zrotation Yrotation Xrotation
						End Site
						{
							OFFSET 0.000000 0.000000 0.000000
						}
					}
				}
				JOINT RightLegEnd
				{
					OFFSET 0.000000 0.000000 0.000000
					CHANNELS 3 Zrotation Yrotation Xrotation
					End Site
					{
						OFFSET 0.000000 0.000000 0.000000
					}
				}
			}
			JOINT RightUpLegEnd
			{
				OFFSET 0.000000 0.000000 0.000000
				CHANNELS 3 Zrotation Yrotation Xrotation
				End Site
				{
					OFFSET 0.000000 0.000000 0.000000
				}
			}
		}
	}
	JOINT LeftUpLeg
	{
		OFFSET 11.315661 -0.000000 0.000000
		CHANNELS 3 Zrotation Yrotation Xrotation
		JOINT LeftLeg
		{
			OFFSET -0.000000 -38.200325 -0.000000
			CHANNELS 3 Zrotation Yrotation Xrotation
			JOINT LeftFoot
			{
				OFFSET 0.000000 -39.900856 -0.000000
				CHANNELS 3 Zrotation Yrotation Xrotation
				JOINT LeftToeBase
				{
					OFFSET -0.000000 -0.000000 15.261641
					CHANNELS 3 Zrotation Yrotation Xrotation
					JOINT LeftToeBaseEnd
					{
						OFFSET 0.000000 -0.000000 7.539996
						CHANNELS 3 Zrotation Yrotation Xrotation
						End Site
						{
							OFFSET 0.000000 0.000000 0.000000
						}
					}
				}
				JOINT LeftLegEnd
				{
					OFFSET 0.000000 0.000000 0.000000
					CHANNELS 3 Zrotation Yrotation Xrotation
					End Site
					{
						OFFSET 0.000000 0.000000 0.000000
					}
				}
			}
			JOINT LeftUpLegEnd
			{
				OFFSET 0.000000 0.000000 0.000000
				CHANNELS 3 Zrotation Yrotation Xrotation
				End Site
				{
					OFFSET 0.000000 0.000000 0.000000
				}
			}
		}
	}
}
MOTION
Frames: 4
Frame Time: 0.016667
-0.249636 88.500847 4.117280 -0.367727 -0.403338 -12.555459 1.616068 0.152652 7.333966 -0.658803 0.372085 2.024490 -0.511393 0.565768 5.912693 -1.734866 0.618858 5.041202 0.817249 -0.903420 6.699493 0.477037 -0.493088 -2.303601 -0.060535 -1.238387 -20.344599 0.000000 0.000000 0.000000 92.314857 -0.404850 11.124682 64.752647 -29.050364 6.660007 -0.099571 16.697363 26.803625 7.608281 13.472584 -5.336188 19.563543 30.196108 62.439243 -8.106763 -11.511382 -19.484150 -5.991775 -7.594331 -13.450759 0.000000 0.000000 0.000000 9.443126 -10.585463 2.413405 8.945323 0.406456 1.306253 8.722205 -0.027349 1.261070 0.000000 0.000000 0.000000 8.973624 -4.989134 0.197627 7.566038 0.470674 0.485971 8.204103 -0.026740 0.415097 0.000000 0.000000 0.000000 10.148041 2.752313 -1.175611 8.443358 -0.951504 -0.734531 8.388215 0.022198 -0.499943 0.000000 0.000000 0.000000 9.521442 11.141901 -3.463421 8.496200 -1.809279 -2.066160 8.417168 0.115729 -1.739700 0.000000 0.000000 0.000000 0.000000 0.000000 0.000000 0.000000 0.000000 0.000000 -90.295624 0.442826 4.967835 -68.637161 17.629908 -2.736690 -0.150983 -12.197265 56.482407 -6.580441 -10.789720 -12.619385 -19.191723 -30.285131 62.556408 7.901777 10.879382 -18.789574 5.820042 7.373100 -13.052845 0.000000 0.000000 0.000000 -12.042105 -6.706405 6.191879 -8.002094 0.451854 -0.931154 -7.668749 -0.013002 -0.894623 0.000000 0.000000 0.000000 -11.292258 -1.527745 2.340910 -7.661657 0.485403 -0.429667 -7.971418 -0.012685 -0.333238 0.000000 0.000000 0.000000 -14.659223 6.745827 -1.608760 -9.697309 -0.968685 0.686417 -9.824739 0.029203 0.526223 0.000000 0.000000 0.000000 -17.341066 15.731915 -6.646124 -11.264802 -1.818694 2.197851 -10.810092 0.221032 1.952617 0.000000 0.000000 0.000000 0.000000 0.000000 0.000000 0.000000 0.000000 0.000000 -0.430826 -10.346246 17.491362 -0.073532 -0.722079 4.999929 -3.095337 -8.362055 16.180790 -0.918327 0.908559 -17.708059 0.000000 0.000000 0.000000 0.000000 0.000000 0.000000 0.000000 0.000000 0.000000 -0.885457 -7.642460 11.147395 0.082331 0.311745 12.231910 3.427399 -1.746391 15.164310 0.271122 -0.388761 -20.390772 0.000000 0.000000 0.000000 0.000000 0.000000 0.000000 0.000000 0.000000 0.000000 
-0.253766 88.500725 4.116765 -0.370625 -0.473492 -12.587060 1.610313 0.155274 7.342278 -0.664804 0.375537 2.017148 -0.502040 0.563558 5.937424 -1.728992 0.616634 5.045995 0.842009 -0.920511 6.730278 0.488985 -0.487636 -2.288976 -0.048005 -1.234489 -20.336405 0.000000 0.000000 0.000000 92.344482 -0.405108 11.130094 64.752487 -28.869047 6.677610 -0.090188 16.691763 26.656931 7.476747 13.701456 -5.366429 19.533447 30.205860 62.467262 -8.076231 -11.457860 -19.400803 -5.967098 -7.557114 -13.390920 0.000000 0.000000 0.000000 9.204244 -10.547950 2.519352 8.851612 0.408472 1.294688 8.629120 -0.025093 1.250089 0.000000 0.000000 0.000000 8.751982 -4.950955 0.270540 7.465356 0.471362 0.481114 8.106198 -0.025912 0.410994 0.000000 0.000000 0.000000 9.970373 2.783483 -1.146343 8.338733 -0.951763 -0.729900 8.280500 0.021674 -0.495558 0.000000 0.000000 0.000000 9.389926 11.159867 -3.464036 8.402330 -1.809393 -2.057276 8.322639 0.114699 -1.730593 0.000000 0.000000 0.000000 0.000000 0.000000 0.000000 0.000000 0.000000 0.000000 -90.304878 0.456153 4.986204 -68.608498 17.724308 -2.672373 -0.152690 -12.150208 56.295090 -6.409481 -10.775751 -12.764728 -19.059952 -30.325802 62.685791 7.765875 10.625747 -18.397364 5.709269 7.204982 -12.781634 0.000000 0.000000 0.000000 -11.061214 -6.889018 6.587112 -7.442070 0.452822 -0.927621 -7.114414 -0.011943 -0.891621 0.000000 0.000000 0.000000 -10.367861 -1.696714 2.603918 -7.110564 0.485549 -0.427694 -7.419489 -0.012414 -0.331810 0.000000 0.000000 0.000000 -13.786435 6.599397 -1.514216 -9.152915 -0.969404 0.684135 -9.278994 0.028686 0.524927 0.000000 0.000000 0.000000 -16.591173 15.634087 -6.717966 -10.802153 -1.819697 2.200827 -10.347019 0.220352 1.955000 0.000000 0.000000 0.000000 0.000000 0.000000 0.000000 0.000000 0.000000 0.000000 -0.425206 -10.319501 17.490053 -0.074169 -0.723937 5.007511 -3.098126 -8.320703 16.186308 -0.919054 0.910808 -17.691313 0.000000 0.000000 0.000000 0.000000 0.000000 0.000000 0.000000 0.000000 0.000000 -0.864005 -7.620000 11.185430 0.082500 0.311135 12.240885 3.413387 -1.704414 15.154115 0.272435 -0.389389 -20.388319 0.000000 0.000000 0.000000 0.000000 0.000000 0.000000 0.000000 0.000000 0.000000 
-0.258453 88.499947 4.115639 -0.373389 -0.550905 -12.618556 1.604788 0.156153 7.352945 -0.670016 0.378008 2.016285 -0.487254 0.555158 5.952528 -1.719567 0.612195 5.050488 0.873972 -0.934590 6.759212 0.502863 -0.477229 -2.272820 -0.036129 -1.230608 -20.323790 0.000000 0.000000 0.000000 92.381142 -0.407107 11.132709 64.741035 -28.717258 6.681996 -0.080607 16.662321 26.494387 7.360334 13.873123 -5.411445 19.495388 30.217777 62.502525 -8.038934 -11.388077 -19.294779 -5.936652 -7.509902 -13.314867 0.000000 0.000000 0.000000 8.913965 -10.500819 2.627667 8.724294 0.410409 1.280902 8.501617 -0.022888 1.237184 0.000000 0.000000 0.000000 8.481627 -4.904097 0.341339 7.331456 0.471927 0.475352 7.974197 -0.025124 0.406179 0.000000 0.000000 0.000000 9.753469 2.821319 -1.119825 8.204198 -0.951711 -0.724000 8.141725 0.021314 -0.490316 0.000000 0.000000 0.000000 9.224942 11.183024 -3.468680 8.285283 -1.809138 -2.044844 8.204335 0.113763 -1.718377 0.000000 0.000000 0.000000 0.000000 0.000000 0.000000 0.000000 0.000000 0.000000 -90.316368 0.469746 5.007143 -68.586296 17.828842 -2.614230 -0.156123 -12.080909 56.059879 -6.218740 -10.708666 -12.956238 -18.915325 -30.371033 62.829212 7.614779 10.346374 -17.963295 5.586447 7.019342 -12.481651 0.000000 0.000000 0.000000 -9.970570 -7.091727 6.999987 -6.833802 0.453525 -0.924396 -6.512845 -0.011102 -0.888697 0.000000 0.000000 0.000000 -9.340131 -1.884632 2.880810 -6.510016 0.485594 -0.425513 -6.818146 -0.012127 -0.330365 0.000000 0.000000 0.000000 -12.806849 6.434829 -1.408917 -8.554053 -0.970002 0.681125 -8.677341 0.028098 0.523154 0.000000 0.000000 0.000000 -15.741664 15.520967 -6.782504 -10.290765 -1.820186 2.201196 -9.833156 0.219749 1.955431 0.000000 0.000000 0.000000 0.000000 0.000000 0.000000 0.000000 0.000000 0.000000 -0.416461 -10.291183 17.484285 -0.074837 -0.725472 5.022071 -3.102916 -8.279760 16.190840 -0.919779 0.912787 -17.676987 0.000000 0.000000 0.000000 0.000000 0.000000 0.000000 0.000000 0.000000 0.000000 -0.844506 -7.597284 11.220120 0.082594 0.310393 12.255552 3.401935 -1.660993 15.143230 0.272488 -0.390067 -20.389219 0.000000 0.000000 0.000000 0.000000 0.000000 0.000000 0.000000 0.000000 0.000000 
-0.263664 88.498642 4.114368 -0.376284 -0.636054 -12.649192 1.599717 0.155136 7.365716 -0.674371 0.379461 2.020582 -0.467235 0.541051 5.957663 -1.707177 0.605744 5.054927 0.916414 -0.946116 6.785975 0.518052 -0.462473 -2.255938 -0.025007 -1.226272 -20.310909 0.000000 0.000000 0.000000 92.423912 -0.410699 11.130635 64.718208 -28.597385 6.665489 -0.070841 16.607801 26.320967 7.261115 13.998125 -5.467381 19.450041 30.231775 62.544735 -7.995117 -11.302909 -19.167412 -5.900743 -7.453392 -13.223510 0.000000 0.000000 0.000000 8.577081 -10.445470 2.735648 8.564865 0.412483 1.264672 8.341372 -0.020517 1.222148 0.000000 0.000000 0.000000 8.167768 -4.849614 0.408967 7.166407 0.472510 0.468602 7.810072 -0.024292 0.400589 0.000000 0.000000 0.000000 9.502352 2.865357 -1.095962 8.042651 -0.951673 -0.716472 7.974938 0.020924 -0.483981 0.000000 0.000000 0.000000 9.030976 11.211583 -3.477335 8.148295 -1.809383 -2.027365 8.065471 0.112324 -1.701855 0.000000 0.000000 0.000000 0.000000 0.000000 0.000000 0.000000 0.000000 0.000000 -90.330681 0.482803 5.029739 -68.574303 17.934507 -2.573091 -0.161519 -11.986173 55.789806 -6.011658 -10.593657 -13.173420 -18.765091 -30.418732 62.979771 7.455271 10.055264 -17.508512 5.457296 6.825509 -12.167429 0.000000 0.000000 0.000000 -8.822213 -7.305603 7.412111 -6.210104 0.454232 -0.920743 -5.896182 -0.010238 -0.885240 0.000000 0.000000 0.000000 -8.256917 -2.083070 3.160374 -5.892526 0.485684 -0.422833 -6.199464 -0.011731 -0.328635 0.000000 0.000000 0.000000 -11.765475 6.259688 -1.294930 -7.932957 -0.970659 0.677015 -8.051851 0.027335 0.520611 0.000000 0.000000 0.000000 -14.831202 15.398086 -6.832650 -9.758043 -1.820656 2.197389 -9.295842 0.218888 1.952650 0.000000 0.000000 0.000000 0.000000 0.000000 0.000000 0.000000 0.000000 0.000000 -0.403970 -10.262728 17.474245 -0.075567 -0.726758 5.043447 -3.109648 -8.239271 16.194527 -0.920260 0.914701 -17.666084 0.000000 0.000000 0.000000 0.000000 0.000000 0.000000 0.000000 0.000000 0.000000 -0.826296 -7.573389 11.251863 0.082702 0.309773 12.274659 3.391894 -1.616945 15.131127 0.271640 -0.390858 -20.392729 0.000000 0.000000 0.000000 0.000000 0.000000 0.000000 0.000000 0.000000 0.000000 
